# xmcd CD database file
#
# Track frame offsets:
#	150
#	72173
#	100854
#	150560
#	182052
#
# Disc length: 2705 seconds
#
# Revision: 0
# Processed by: cddbd v1.5.2PL0 Copyright (c) Steve Scherf et al.
# Submitted via: CDex 1.70beta3
#
DISCID=370a8f05
DTITLE=Nonaka Goku and Ningen-kokuho - ＠井川てしゃまんく音楽祭
DYEAR=2016
DGENRE=Jazz
TTITLE0=My Favorite Things
TTITLE1=Lonely Woman
TTITLE2=Charade
TTITLE3=McCoy
TTITLE4=Dull
EXTD=YEAR: 2016
EXTT0=
EXTT1=
EXTT2=
EXTT3=
EXTT4=
PLAYORDER=
